<?xml version="1.0" encoding="utf-8"?>
<!-- Generator: Adobe Illustrator 28.1.0, SVG Export Plug-In . SVG Version: 6.00 Build 0)  -->
<svg version="1.1" id="Layer_1" xmlns="http://www.w3.org/2000/svg" xmlns:xlink="http://www.w3.org/1999/xlink" x="0px" y="0px"
	 viewBox="0 0 576 576" style="enable-background:new 0 0 576 576;" xml:space="preserve">
<style type="text/css">
	.st0{fill:url(#SVGID_1_);}
	.st1{fill:url(#SVGID_00000155859436638633714510000007831760501063272065_);}
	.st2{fill:url(#SVGID_00000040534085400106603980000003798408221353280390_);}
	.st3{fill:#FFFFFF;}
	.st4{fill:url(#SVGID_00000173858524819197181530000002546430008934119089_);}
	.st5{fill:none;}
	.st6{fill:url(#SVGID_00000131359809283395215910000012130642224131811987_);}
	.st7{fill:url(#SVGID_00000131343845066760732060000003316959553950943654_);}
	.st8{fill:#CBCBCA;}
	.st9{fill:none;stroke:#FFFFFF;stroke-miterlimit:10;}
</style>
<linearGradient id="SVGID_1_" gradientUnits="userSpaceOnUse" x1="4.573" y1="287.6699" x2="564.6534" y2="287.6699">
	<stop  offset="6.713014e-07" style="stop-color:#00FFD8"/>
	<stop  offset="0.2617" style="stop-color:#00F5E0"/>
	<stop  offset="0.6872" style="stop-color:#00DCF6"/>
	<stop  offset="0.7468" style="stop-color:#08D4F7"/>
	<stop  offset="0.8396" style="stop-color:#1CBEFA"/>
	<stop  offset="0.9535" style="stop-color:#3E9AFE"/>
	<stop  offset="0.9711" style="stop-color:#4494FF"/>
</linearGradient>
<path class="st0" d="M564.65,240.36v228.09c0,4.19-0.26,8.31-0.77,12.36c-5.77,46.46-43.64,82.95-90.73,86.6
	c-2.56,0.2-5.15,0.3-7.76,0.3h-32.43c0.04-0.1,0.1-0.2,0.14-0.3c0.18-0.34,0.34-0.7,0.51-1.06c0.18-0.34,0.33-0.7,0.5-1.06
	c0.33-0.7,0.66-1.41,0.98-2.12c0.32-0.71,0.63-1.42,0.94-2.13c0.16-0.34,0.3-0.7,0.46-1.06c0.76-1.79,1.47-3.6,2.14-5.43
	c0.26-0.69,0.51-1.38,0.76-2.08c0.21-0.61,0.42-1.21,0.63-1.82c0.42-1.24,0.83-2.5,1.22-3.77c0.39-1.26,0.77-2.52,1.11-3.8
	c0.18-0.62,0.36-1.24,0.52-1.87c0.13-0.52,0.27-1.04,0.4-1.57c0.81-3.16,1.51-6.35,2.12-9.56c0.09-0.49,0.18-0.97,0.27-1.46
	c0.19-1.06,0.37-2.12,0.53-3.18c0.12-0.73,0.23-1.47,0.33-2.2c0.11-0.73,0.21-1.47,0.31-2.2c0.1-0.73,0.19-1.48,0.28-2.21
	c0.17-1.48,0.32-2.96,0.47-4.43c0.07-0.74,0.13-1.49,0.19-2.22c0.11-1.49,0.21-2.98,0.3-4.47c0.08-1.49,0.13-2.98,0.18-4.47
	c0.02-0.63,0.03-1.26,0.04-1.88c0.01-0.48,0.02-0.96,0.02-1.43c0.01-1.73,0.01-3.46-0.02-5.18c-0.01-0.8-0.03-1.59-0.06-2.39
	c-0.08-2.47-0.2-4.93-0.37-7.39c-0.04-0.62-0.09-1.23-0.14-1.86c-0.02-0.34-0.06-0.69-0.08-1.03c-0.03-0.37-0.06-0.72-0.1-1.08
	c-0.2-2.24-0.44-4.47-0.72-6.7c-0.1-0.83-0.21-1.66-0.32-2.48c-0.12-0.82-0.23-1.66-0.36-2.48c-0.12-0.82-0.26-1.64-0.39-2.47
	c-0.26-1.59-0.53-3.17-0.83-4.75c-0.12-0.64-0.24-1.29-0.37-1.93c-0.02-0.07-0.03-0.14-0.04-0.21c-0.07-0.33-0.13-0.66-0.2-0.99
	c-0.3-1.47-0.61-2.92-0.94-4.37c-0.11-0.48-0.22-0.96-0.33-1.43c-0.11-0.48-0.22-0.96-0.34-1.43c-0.16-0.67-0.32-1.33-0.49-2
	c-0.01-0.04-0.02-0.09-0.03-0.13c-0.18-0.68-0.36-1.36-0.53-2.02c-0.18-0.68-0.37-1.37-0.54-2.04c-0.94-3.44-1.99-6.85-3.11-10.21
	c-0.29-0.88-0.58-1.73-0.89-2.6c-0.3-0.87-0.6-1.73-0.92-2.59c-0.24-0.69-0.5-1.39-0.77-2.08c-0.27-0.7-0.53-1.39-0.8-2.08
	c-0.33-0.88-0.68-1.74-1.03-2.6c-0.34-0.87-0.7-1.72-1.07-2.58c-0.21-0.52-0.43-1.03-0.67-1.56c-0.31-0.72-0.62-1.44-0.94-2.16
	l-0.83-1.83c-0.83-1.82-1.7-3.61-2.58-5.39c-0.31-0.62-0.63-1.26-0.96-1.87c-0.37-0.73-0.74-1.44-1.12-2.17
	c-0.21-0.39-0.42-0.79-0.63-1.18c-1.59-2.96-3.26-5.86-4.99-8.68c-0.54-0.88-1.09-1.76-1.64-2.62c-0.54-0.84-1.09-1.69-1.64-2.51
	c-0.11-0.19-0.23-0.38-0.37-0.56c-0.54-0.83-1.11-1.66-1.68-2.47c-0.2-0.3-0.42-0.6-0.63-0.9c-0.21-0.3-0.42-0.6-0.63-0.9
	c-0.44-0.62-0.9-1.24-1.36-1.86c-0.29-0.4-0.58-0.79-0.88-1.18c-0.38-0.5-0.76-1-1.13-1.49c-0.59-0.77-1.19-1.53-1.79-2.28
	c-0.37-0.46-0.72-0.9-1.08-1.33c-0.24-0.3-0.49-0.59-0.74-0.89c-0.56-0.67-1.11-1.32-1.68-1.98c-1.23-1.43-2.5-2.84-3.79-4.21
	c-0.43-0.47-0.87-0.91-1.3-1.37c-0.47-0.5-0.96-0.99-1.44-1.49c-0.56-0.57-1.12-1.12-1.69-1.67c-1.11-1.08-2.22-2.12-3.36-3.14
	c-3.27-2.96-6.63-5.71-10.12-8.22c-0.39-0.29-0.79-0.57-1.19-0.84c-0.52-0.38-1.06-0.74-1.59-1.1c-0.42-0.29-0.86-0.58-1.28-0.86
	c-0.47-0.31-0.92-0.6-1.39-0.9c-1.02-0.66-2.06-1.28-3.09-1.89c-0.32-0.9-0.64-1.8-0.99-2.69c-0.34-0.94-0.69-1.88-1.04-2.81
	l-0.01-0.02c-0.49-1.29-0.99-2.58-1.49-3.87c-0.7-1.79-1.43-3.56-2.19-5.3c-0.33-0.79-0.68-1.56-1.02-2.33
	c-0.43-0.97-0.87-1.92-1.32-2.87c-0.31-0.67-0.63-1.33-0.97-1.99c0.01-0.02,0-0.03-0.02-0.06v-0.01c-0.03-0.08-0.07-0.16-0.12-0.23
	c-0.24-0.5-0.48-0.99-0.72-1.47c-0.23-0.49-0.48-0.97-0.74-1.46c-0.41-0.81-0.83-1.6-1.24-2.39c-0.26-0.49-0.52-0.98-0.8-1.47
	c-0.42-0.78-0.86-1.56-1.3-2.32c-0.5-0.9-1.02-1.8-1.56-2.68c-0.17-0.31-0.36-0.61-0.54-0.91c-0.21-0.38-0.43-0.73-0.67-1.1
	c-0.2-0.34-0.42-0.69-0.63-1.02c-0.16-0.27-0.31-0.52-0.49-0.78c-0.48-0.77-0.97-1.52-1.46-2.28c-0.11-0.18-0.22-0.36-0.34-0.52
	c-0.54-0.82-1.09-1.64-1.64-2.46c-0.34-0.51-0.69-1.01-1.06-1.51c-0.31-0.46-0.63-0.9-0.96-1.34c-0.49-0.71-1-1.41-1.52-2.1
	c-0.38-0.52-0.77-1.03-1.16-1.54c-0.49-0.66-0.99-1.31-1.5-1.96c-1.43-1.84-2.9-3.64-4.41-5.42c-0.78-0.92-1.57-1.83-2.37-2.73
	c-2.24-2.54-4.57-5.02-6.97-7.43c-0.31-0.32-0.63-0.63-0.94-0.94c-3.08-3.07-6.27-6.01-9.58-8.86c-0.52-0.47-1.06-0.91-1.59-1.36
	l-0.01-0.01c-0.23-0.2-0.46-0.4-0.69-0.58c-0.71-0.61-1.43-1.2-2.16-1.78c-0.54-0.44-1.09-0.89-1.62-1.31
	c-0.31-0.26-0.62-0.5-0.93-0.73c-0.6-0.48-1.2-0.94-1.81-1.4c-0.11-0.1-0.23-0.2-0.36-0.28c-0.06-0.04-0.11-0.09-0.17-0.13
	c-0.64-0.49-1.29-0.98-1.94-1.46c-0.49-0.37-0.99-0.73-1.48-1.09c-0.89-0.66-1.78-1.3-2.67-1.92c-0.82-0.58-1.64-1.16-2.47-1.72
	c-4.21-2.89-8.55-5.65-13-8.27c-0.87-0.52-1.74-1.03-2.63-1.53c-3.09-1.78-6.25-3.5-9.45-5.15c-0.7-0.37-1.41-0.72-2.11-1.09
	c-1.6-0.81-3.21-1.61-4.83-2.39c-0.67-0.32-1.33-0.64-2.01-0.96c-0.34-0.17-0.69-0.33-1.04-0.49c-0.97-0.44-1.93-0.9-2.91-1.33
	c-0.19-0.1-0.38-0.18-0.57-0.26c-0.82-0.38-1.64-0.73-2.48-1.1c-1.44-0.64-2.91-1.27-4.38-1.88c-0.96-0.41-1.92-0.81-2.89-1.2
	c-1.06-0.43-2.12-0.87-3.2-1.29c-2-0.8-4.02-1.57-6.06-2.32c-0.39-0.14-0.77-0.28-1.16-0.42c-1.76-0.64-3.52-1.28-5.31-1.9
	c-1.6-0.56-3.21-1.11-4.82-1.64c-2.21-0.73-4.45-1.46-6.69-2.14c-1.58-0.5-3.17-0.98-4.76-1.44c-1.22-0.37-2.46-0.72-3.69-1.07
	c-1.11-0.32-2.23-0.63-3.34-0.94c-4.17-1.14-8.37-2.23-12.61-3.26c-0.93-0.23-1.86-0.46-2.79-0.67c-0.81-0.2-1.62-0.39-2.44-0.57
	c-1.34-0.31-2.7-0.61-4.06-0.91c-6.77-1.49-13.64-2.83-20.57-4.03l-8.22,15.02l-38.76,70.83l-7.69,14.06L114,321.64l-24.04,43.93
	c-3.09,5.63-10.17,7.7-15.8,4.6l-58.53-32.23c-5.62-3.09-7.67-10.16-4.58-15.78l66.32-120.47l-72.44,18.1l-0.36,0.09V106.89
	c0-2.82,0.12-5.62,0.36-8.39c0.7-8.33,2.42-16.38,5.05-24c0.02-0.09,0.06-0.18,0.09-0.27c10.75-30.84,36.28-54.75,68.11-63.25
	c0.1-0.03,0.2-0.06,0.3-0.08c5.83-1.53,11.88-2.56,18.08-3c2.4-0.18,4.83-0.27,7.28-0.27h182l-0.14,0.27l-31.54,57.63L396.9,30.28
	c7.45-1.83,14.05,5.17,11.76,12.49l-24.15,77.34c-1.03,3.28-3.69,5.78-7.01,6.61l-9.98,2.49l-13.49,3.37l-0.93,0.23l-12.56,3.13
	l-65.94,16.48l-16.48,4.11l-5.13,1.29c1.6,1.54,3.32,3.17,5.18,4.82c0.62,0.56,1.24,1.11,1.89,1.68c0.97,0.84,1.97,1.7,2.99,2.56
	c0.69,0.57,1.38,1.14,2.09,1.72c1.07,0.87,2.16,1.74,3.28,2.6c0.74,0.58,1.5,1.16,2.27,1.73c3.86,2.89,8.01,5.76,12.43,8.46
	c0.88,0.54,1.78,1.08,2.68,1.6l0.01,0.01c0.91,0.52,1.82,1.04,2.74,1.56c0.47,0.26,0.93,0.51,1.4,0.77
	c0.78,0.42,1.57,0.83,2.36,1.23c1.74,0.9,3.53,1.77,5.35,2.6c0.9,0.41,1.81,0.82,2.73,1.21c0.92,0.4,1.86,0.79,2.79,1.16l0.01,0.01
	c0.93,0.37,1.88,0.73,2.82,1.08c0.09,0.03,0.18,0.07,0.27,0.1c0.82,0.3,1.63,0.59,2.47,0.87c0.22,0.08,0.46,0.16,0.68,0.23
	c0.76,0.26,1.52,0.5,2.3,0.74c0.84,0.26,1.7,0.5,2.56,0.74c0.52,0.14,1.06,0.29,1.59,0.43c0.51,0.13,1.03,0.27,1.56,0.4
	c1.12,0.28,2.26,0.53,3.39,0.78c1.11,0.23,2.23,0.44,3.37,0.64c1.76,0.3,3.53,0.57,5.33,0.77c0.41,0.06,0.82,0.1,1.24,0.13
	c1.91,0.2,3.84,0.33,5.79,0.41c1.08,0.03,2.17,0.06,3.26,0.06c0.61,0,1.23-0.01,1.84-0.02c0.67-0.01,1.33-0.03,2.01-0.07
	c0.57-0.02,1.13-0.06,1.71-0.09c0.62-0.04,1.24-0.09,1.87-0.14c0.62-0.04,1.26-0.11,1.89-0.18c0.43-0.04,0.88-0.1,1.32-0.16
	c0.36-0.04,0.72-0.09,1.09-0.14c0.46-0.06,0.91-0.12,1.38-0.19c0.68-0.11,1.34-0.22,2.03-0.33c1.01-0.18,2.02-0.38,3.04-0.6
	c0,0,0,0,0-0.01c0.22-0.03,0.44-0.08,0.67-0.13c0.51-0.11,1.02-0.23,1.54-0.36c0.69-0.17,1.38-0.34,2.07-0.52
	c0.54-0.14,1.1-0.3,1.64-0.46c0.56-0.16,1.1-0.32,1.66-0.49c1.59-0.49,3.18-1.02,4.78-1.61c0.44,1.51,0.88,3,1.31,4.48
	c0.51,1.72,1.01,3.42,1.52,5.1c0.33,1.14,0.67,2.27,1.01,3.38c0.61,2.02,1.21,3.99,1.79,5.93c0.22,0.73,0.44,1.46,0.67,2.17
	c0.41,1.31,0.81,2.6,1.2,3.89c0.59,1.92,1.18,3.8,1.77,5.63c0.53,1.7,1.07,3.37,1.59,5c1,3.09,1.97,6.07,2.93,8.93
	c0.19,0.54,0.37,1.09,0.56,1.63c1.04,3.1,2.07,6.08,3.09,8.92c0.37,1.03,0.73,2.04,1.09,3.03c0.47,1.29,0.93,2.56,1.4,3.8
	c0.21,0.56,0.42,1.1,0.63,1.64c0.21,0.59,0.43,1.17,0.67,1.74c0.17,0.44,0.34,0.89,0.51,1.32c0.91,2.33,1.81,4.58,2.72,6.73
	c0.19,0.46,0.38,0.91,0.58,1.36c0.53,1.28,1.08,2.52,1.63,3.73c0.24,0.57,0.5,1.12,0.76,1.68c0.28,0.62,0.57,1.24,0.87,1.86
	c0.17,0.36,0.33,0.7,0.5,1.06c0.31,0.66,0.62,1.3,0.94,1.93c0.37,0.76,0.74,1.5,1.12,2.23c0.26,0.49,0.51,0.98,0.77,1.46
	c0.23,0.44,0.47,0.89,0.71,1.32c0.21,0.39,0.42,0.77,0.63,1.14c2.27,4.08,4.57,7.65,6.95,10.8c0.3,0.41,0.6,0.8,0.91,1.19
	c0.37,0.46,0.72,0.91,1.09,1.36c0.37,0.44,0.73,0.88,1.1,1.3c0.36,0.42,0.73,0.84,1.11,1.24c0.29,0.32,0.58,0.62,0.87,0.92
	c0.46,0.49,0.92,0.97,1.4,1.43c0.37,0.36,0.73,0.7,1.1,1.04c0.21,0.21,0.43,0.41,0.67,0.61c0.27,0.24,0.53,0.49,0.81,0.72
	c0.31,0.27,0.62,0.53,0.93,0.79c0.34,0.29,0.69,0.57,1.04,0.84c1.09,0.87,2.21,1.68,3.36,2.46c0.31,0.2,0.62,0.41,0.94,0.61
	c0.38,0.26,0.77,0.5,1.17,0.73c1.59,0.98,3.23,1.89,4.95,2.72c0.84,0.42,1.7,0.82,2.57,1.21c3.22,1.44,6.67,2.71,10.37,3.9
	c42.68,13.68,61.57-24.1,86.58-58c0.36-0.48,0.71-0.94,1.07-1.4c0.3-0.39,0.61-0.77,0.91-1.13c0.19-0.22,0.38-0.44,0.57-0.67
	c0.32-0.38,0.64-0.74,0.98-1.11c0.39-0.43,0.78-0.84,1.18-1.26c0.58-0.6,1.18-1.19,1.78-1.74c0.24-0.23,0.49-0.47,0.73-0.68
	c1.59-1.44,3.24-2.74,4.96-3.91c0.34-0.24,0.68-0.47,1.03-0.69c0.52-0.34,1.06-0.68,1.59-0.99c0.73-0.44,1.48-0.86,2.24-1.26
	c0.21-0.12,0.43-0.23,0.66-0.34c4.47-2.24,9.2-3.76,14.1-4.63c0.29-0.06,0.59-0.11,0.88-0.16
	C564.14,240.44,564.4,240.39,564.65,240.36z"/>
<linearGradient id="SVGID_00000173119135177850354390000017170594689668474533_" gradientUnits="userSpaceOnUse" x1="120.154" y1="389.0936" x2="448.3458" y2="389.0936">
	<stop  offset="9.057242e-07" style="stop-color:#70BE44"/>
	<stop  offset="1" style="stop-color:#B8E100"/>
</linearGradient>
<path style="fill:url(#SVGID_00000173119135177850354390000017170594689668474533_);" d="M448.34,499.95c0,0.48-0.01,0.96-0.02,1.43
	c-0.01,0.62-0.02,1.24-0.04,1.88c-0.04,1.49-0.1,2.98-0.18,4.47c-0.09,1.49-0.19,2.98-0.3,4.47c-0.06,0.73-0.12,1.48-0.19,2.22
	c-0.14,1.48-0.3,2.96-0.47,4.43c-0.09,0.73-0.18,1.48-0.28,2.21c-0.1,0.73-0.2,1.47-0.31,2.2c-0.1,0.73-0.21,1.47-0.33,2.2
	c-0.17,1.06-0.34,2.12-0.53,3.18c-0.09,0.49-0.18,0.97-0.27,1.46c-0.61,3.21-1.31,6.4-2.12,9.56c-0.13,0.52-0.27,1.04-0.4,1.57
	c-0.17,0.62-0.34,1.24-0.52,1.87c-0.34,1.28-0.72,2.54-1.11,3.8c-0.39,1.27-0.8,2.52-1.22,3.77c-0.21,0.61-0.42,1.21-0.63,1.82
	c-0.24,0.7-0.5,1.39-0.76,2.08c-0.68,1.83-1.39,3.64-2.14,5.43c-0.16,0.36-0.3,0.71-0.46,1.06c-0.31,0.71-0.62,1.42-0.94,2.13
	c-0.32,0.71-0.64,1.42-0.98,2.12c-0.17,0.36-0.32,0.71-0.5,1.06c-0.17,0.36-0.33,0.71-0.51,1.06c-0.04,0.1-0.1,0.2-0.14,0.3H240.99
	c0.33-0.1,0.67-0.2,1-0.3c52.31-15.51,87.5-35.7,110.26-58.49c4.71-4.7,8.9-9.53,12.58-14.47c4.13-5.49,7.63-11.09,10.57-16.78
	c0.74-1.39,1.43-2.8,2.09-4.2c1.69-3.61,3.16-7.25,4.42-10.91c0.46-1.3,0.89-2.6,1.28-3.9c3.81-12.33,5.45-24.94,5.45-37.57
	c0-0.76-0.01-1.51-0.02-2.27c-0.04-3.06-0.18-6.09-0.41-9.13c-0.04-0.63-0.09-1.27-0.14-1.89c-0.48-5.59-1.23-11.16-2.23-16.7
	c-0.11-0.62-0.22-1.24-0.34-1.88c-0.71-3.77-1.53-7.52-2.44-11.26c-0.32-1.34-0.66-2.68-1.01-4.01c-0.24-0.91-0.49-1.82-0.73-2.72
	c-0.22-0.84-0.47-1.69-0.7-2.53c-0.14-0.48-0.28-0.94-0.42-1.42c-0.39-1.33-0.78-2.64-1.19-3.97l-12.55-18.11
	c-1.18-0.57-2.34-1.09-3.51-1.59c-0.44-0.2-0.9-0.39-1.36-0.57c-0.46-0.2-0.9-0.38-1.36-0.54c-0.44-0.18-0.89-0.36-1.34-0.52
	c-0.44-0.18-0.9-0.34-1.34-0.5c-0.74-0.27-1.49-0.52-2.23-0.77c-0.16-0.06-0.31-0.1-0.47-0.16c-0.84-0.28-1.7-0.54-2.54-0.79
	c-0.62-0.18-1.24-0.36-1.86-0.52c-0.29-0.08-0.58-0.16-0.87-0.22c-0.43-0.12-0.88-0.23-1.31-0.33c-0.43-0.11-0.88-0.21-1.31-0.31
	c-1.74-0.4-3.49-0.73-5.21-1.02c-0.39-0.07-0.78-0.13-1.17-0.19c-0.48-0.07-0.94-0.14-1.42-0.2c-0.6-0.09-1.2-0.17-1.8-0.23
	c-0.69-0.08-1.37-0.14-2.06-0.21c-0.42-0.04-0.86-0.08-1.28-0.11c-0.26-0.02-0.52-0.04-0.78-0.06c-0.26-0.02-0.52-0.04-0.79-0.06
	c-66.51-4.14-121.84,63.17-212.27-25.9l7.69-14.06l38.76-70.83l8.22-15.02c6.93,1.2,13.8,2.54,20.57,4.03
	c1.36,0.3,2.71,0.6,4.06,0.91c0.82,0.18,1.63,0.37,2.44,0.57c0.93,0.21,1.86,0.43,2.79,0.67c4.25,1.02,8.45,2.11,12.61,3.26
	c1.11,0.31,2.23,0.62,3.34,0.94c1.23,0.34,2.47,0.7,3.69,1.07c1.59,0.47,3.18,0.94,4.76,1.44c2.24,0.69,4.48,1.41,6.69,2.14
	c1.61,0.53,3.22,1.09,4.82,1.64c1.79,0.62,3.56,1.26,5.31,1.9c0.39,0.14,0.77,0.28,1.16,0.42c2.03,0.76,4.06,1.52,6.06,2.32
	c1.08,0.42,2.14,0.86,3.2,1.29c0.97,0.39,1.93,0.79,2.89,1.2c1.47,0.61,2.93,1.23,4.38,1.88c0.83,0.37,1.66,0.72,2.48,1.1
	c0.19,0.08,0.38,0.16,0.57,0.26c0.98,0.43,1.94,0.89,2.91,1.33c0.36,0.16,0.7,0.32,1.04,0.49c0.68,0.31,1.34,0.63,2.01,0.96
	c1.62,0.78,3.23,1.58,4.83,2.39c0.7,0.37,1.41,0.72,2.11,1.09c3.2,1.64,6.36,3.37,9.45,5.15c0.89,0.5,1.77,1.01,2.63,1.53
	c4.46,2.62,8.79,5.38,13,8.27c0.82,0.57,1.64,1.14,2.47,1.72c0.89,0.62,1.78,1.27,2.67,1.92c0.49,0.36,0.99,0.72,1.48,1.09
	c0.66,0.48,1.3,0.97,1.94,1.46c0.06,0.04,0.11,0.09,0.17,0.13c0.12,0.08,0.24,0.18,0.36,0.28c0.61,0.46,1.21,0.92,1.81,1.4
	c0.31,0.23,0.62,0.48,0.93,0.73c0.54,0.43,1.09,0.87,1.62,1.31c0.72,0.58,1.44,1.17,2.16,1.78c0.23,0.18,0.46,0.38,0.69,0.58
	l0.01,0.01c0.53,0.44,1.07,0.89,1.59,1.36c3.31,2.84,6.5,5.79,9.58,8.86c0.31,0.31,0.63,0.62,0.94,0.94
	c2.4,2.41,4.72,4.89,6.97,7.43c0.8,0.9,1.59,1.81,2.37,2.73c1.51,1.78,2.98,3.58,4.41,5.42c0.51,0.64,1.01,1.3,1.5,1.96
	c0.39,0.51,0.78,1.02,1.16,1.54c0.52,0.69,1.03,1.39,1.52,2.1c0.32,0.44,0.64,0.89,0.96,1.34c0.37,0.5,0.71,1,1.06,1.51
	c0.56,0.81,1.1,1.63,1.64,2.46c0.12,0.17,0.23,0.34,0.34,0.52c0.49,0.76,0.98,1.51,1.46,2.28c0.18,0.26,0.33,0.51,0.49,0.78
	c0.21,0.33,0.43,0.68,0.63,1.02c0.23,0.37,0.46,0.72,0.67,1.1c0.19,0.3,0.38,0.6,0.54,0.91c0.53,0.88,1.06,1.78,1.56,2.68
	c0.44,0.77,0.88,1.54,1.3,2.32c0.28,0.49,0.54,0.98,0.8,1.47c0.41,0.79,0.83,1.58,1.24,2.39c0.27,0.49,0.51,0.97,0.74,1.46
	c0.24,0.48,0.48,0.97,0.72,1.47c0.06,0.08,0.09,0.16,0.12,0.23v0.01c0.02,0.02,0.03,0.03,0.02,0.06c0.34,0.66,0.66,1.32,0.97,1.99
	c0.46,0.94,0.89,1.9,1.32,2.87c0.34,0.78,0.69,1.54,1.02,2.33c0.76,1.74,1.49,3.51,2.19,5.3c0.5,1.29,1,2.58,1.49,3.87l0.01,0.02
	l5.12,7.39c0.47,0.3,0.92,0.59,1.39,0.9c0.42,0.28,0.86,0.57,1.28,0.86c0.53,0.36,1.07,0.72,1.59,1.1c0.4,0.28,0.8,0.56,1.19,0.84
	c3.49,2.51,6.86,5.27,10.12,8.22c1.13,1.02,2.24,2.07,3.36,3.14c0.57,0.54,1.13,1.1,1.69,1.67c0.49,0.5,0.98,0.99,1.44,1.49
	c0.43,0.46,0.87,0.9,1.3,1.37c1.29,1.37,2.56,2.78,3.79,4.21c0.57,0.66,1.12,1.31,1.68,1.98c0.26,0.3,0.5,0.59,0.74,0.89
	c0.36,0.43,0.71,0.88,1.08,1.33c0.6,0.74,1.2,1.51,1.79,2.28c0.38,0.49,0.76,0.99,1.13,1.49c0.3,0.39,0.59,0.78,0.88,1.18
	c0.46,0.61,0.91,1.23,1.36,1.86c0.21,0.3,0.42,0.6,0.63,0.9c0.21,0.3,0.43,0.6,0.63,0.9c0.57,0.81,1.13,1.63,1.68,2.47
	c0.13,0.18,0.26,0.37,0.37,0.56c0.56,0.82,1.1,1.67,1.64,2.51c0.56,0.87,1.1,1.74,1.64,2.62c1.73,2.82,3.4,5.72,4.99,8.68
	c0.21,0.39,0.42,0.79,0.63,1.18c0.38,0.72,0.76,1.43,1.12,2.17c0.32,0.61,0.64,1.24,0.96,1.87c0.88,1.78,1.74,3.57,2.58,5.39
	l0.83,1.83c0.32,0.71,0.63,1.43,0.94,2.16c0.23,0.52,0.46,1.03,0.67,1.56c0.37,0.86,0.72,1.71,1.07,2.58
	c0.36,0.86,0.7,1.72,1.03,2.6c0.27,0.69,0.53,1.38,0.8,2.08c0.27,0.69,0.52,1.39,0.77,2.08c0.32,0.86,0.62,1.72,0.92,2.59
	c0.3,0.87,0.6,1.73,0.89,2.6c1.12,3.37,2.17,6.77,3.11,10.21c0.18,0.68,0.37,1.37,0.54,2.04c0.18,0.67,0.36,1.34,0.53,2.02
	c0.01,0.04,0.02,0.09,0.03,0.13c0.17,0.67,0.33,1.33,0.49,2c0.12,0.48,0.23,0.96,0.34,1.43c0.11,0.48,0.22,0.96,0.33,1.43
	c0.33,1.44,0.64,2.9,0.94,4.37c0.07,0.33,0.13,0.66,0.2,0.99c0.01,0.07,0.02,0.14,0.04,0.21c0.12,0.64,0.24,1.29,0.37,1.93
	c0.3,1.58,0.58,3.16,0.83,4.75c0.13,0.82,0.27,1.64,0.39,2.47c0.12,0.82,0.23,1.66,0.36,2.48c0.11,0.82,0.22,1.64,0.32,2.48
	c0.28,2.23,0.52,4.46,0.72,6.7c0.04,0.36,0.07,0.71,0.1,1.08c0.02,0.34,0.06,0.69,0.08,1.03c0.06,0.62,0.1,1.23,0.14,1.86
	c0.17,2.46,0.29,4.92,0.37,7.39c0.02,0.8,0.04,1.59,0.06,2.39C448.35,496.49,448.35,498.21,448.34,499.95z"/>
<linearGradient id="SVGID_00000086661950884877446710000017836460343958984848_" gradientUnits="userSpaceOnUse" x1="4.573" y1="384.6986" x2="388.6318" y2="384.6986">
	<stop  offset="6.713014e-07" style="stop-color:#F7D71E"/>
	<stop  offset="0.1571" style="stop-color:#F8DE1F"/>
	<stop  offset="0.5845" style="stop-color:#FBEA20"/>
	<stop  offset="1" style="stop-color:#FCEE21"/>
</linearGradient>
<path style="fill:url(#SVGID_00000086661950884877446710000017836460343958984848_);" d="M388.63,421.09
	c0,12.63-1.63,25.24-5.45,37.57c-0.39,1.3-0.81,2.6-1.28,3.9c-1.27,3.67-2.73,7.3-4.42,10.91c-0.66,1.41-1.36,2.81-2.09,4.2
	c-2.93,5.69-6.43,11.29-10.57,16.78c-3.68,4.92-7.86,9.76-12.58,14.47c-22.76,22.78-57.95,42.97-110.26,58.49
	c-0.33,0.1-0.67,0.2-1,0.3H103.83c-9.58,0-18.85-1.36-27.61-3.9c-30.93-8.93-55.64-32.5-66.15-62.73c-0.01-0.02-0.01-0.04-0.02-0.07
	c-3.54-10.2-5.47-21.15-5.47-32.56V219.88l0.36-0.09l72.44-18.1L11.05,322.16c-3.09,5.62-1.04,12.69,4.58,15.78l58.53,32.23
	c5.63,3.1,12.71,1.03,15.8-4.6L114,321.64l6.16-11.25c90.43,89.08,145.76,21.76,212.27,25.9c0.27,0.01,0.53,0.03,0.79,0.06
	c0.26,0.01,0.51,0.03,0.78,0.06c0.42,0.03,0.86,0.07,1.28,0.11c0.69,0.07,1.37,0.13,2.06,0.21c0.6,0.07,1.2,0.14,1.8,0.23
	c0.48,0.06,0.94,0.13,1.42,0.2c0.39,0.06,0.78,0.12,1.17,0.19c1.72,0.29,3.47,0.62,5.21,1.02c0.43,0.1,0.87,0.2,1.31,0.31
	c0.43,0.1,0.88,0.21,1.31,0.33c0.29,0.07,0.58,0.14,0.87,0.22c0.61,0.17,1.23,0.34,1.86,0.52c0.84,0.26,1.69,0.51,2.54,0.79
	c0.16,0.06,0.31,0.1,0.47,0.16c0.74,0.24,1.49,0.5,2.23,0.77c0.46,0.17,0.9,0.33,1.34,0.5c0.46,0.17,0.9,0.34,1.34,0.52
	c0.46,0.18,0.9,0.36,1.36,0.54c0.46,0.18,0.9,0.37,1.36,0.57c1.17,0.5,2.33,1.02,3.51,1.59c0.66,0.3,1.3,0.62,1.96,0.94
	c2,1,3.98,2.08,5.92,3.23c1.66,4.59,3.22,9.23,4.67,13.94c0.41,1.32,0.8,2.63,1.19,3.97c0.14,0.47,0.28,0.94,0.41,1.41
	c0.24,0.84,0.48,1.7,0.71,2.54c0.24,0.9,0.49,1.81,0.73,2.72c0.34,1.33,0.69,2.67,1.01,4.01c0.91,3.73,1.73,7.49,2.44,11.26
	c0.12,0.63,0.23,1.26,0.34,1.88c1,5.55,1.76,11.11,2.23,16.7c0.06,0.63,0.1,1.26,0.14,1.89c0.23,3.04,0.37,6.08,0.41,9.13
	C388.62,419.58,388.63,420.34,388.63,421.09z"/>
<path class="st3" d="M447.49,567.41c-0.03,0.1-0.09,0.2-0.13,0.3h-31.39c0.07-0.1,0.12-0.2,0.18-0.3
	c15.08-25.27,21.22-57.32,17.1-92.26c-3.89-32.92-16.42-63.82-34.08-86.83c-5.69-7.43-11.92-14.05-18.58-19.62l-0.01-0.01
	c-5.83-4.9-11.98-9.01-18.37-12.21c-0.29-0.14-0.57-0.28-0.86-0.41c-29.54-14.39-55.27-7.06-85.03,1.44
	c-24.15,6.89-49.13,14.01-77.93,9.89c-28.6-4.1-56.33-19.1-84.39-45.76c-3.69-3.5-7.39-7.2-11.09-11.11l20.17-19.11
	c1.6,1.69,3.2,3.33,4.77,4.92c57.7,58.18,96.31,47.16,140.85,34.46c24.24-6.91,49.1-14,76.48-9.09c6.53,1.17,13.22,3.02,20.08,5.72
	v0.01c3.09,1.21,6.21,2.61,9.38,4.19c3.09,1.54,6.12,3.24,9.11,5.09c18.9,11.71,35.76,29.5,49.16,51.98
	c14.77,24.76,24.44,53.53,27.94,83.2C464.96,506.89,460.2,539.66,447.49,567.41z"/>
<linearGradient id="SVGID_00000029026602263971655450000012016822543857141137_" gradientUnits="userSpaceOnUse" x1="254.1485" y1="100.5301" x2="561.5975" y2="100.5301">
	<stop  offset="4.528621e-07" style="stop-color:#FF00C0"/>
	<stop  offset="0.4031" style="stop-color:#FC3679"/>
	<stop  offset="0.8086" style="stop-color:#F86838"/>
	<stop  offset="1" style="stop-color:#F77C1E"/>
</linearGradient>
<path style="fill:url(#SVGID_00000029026602263971655450000012016822543857141137_);" d="M561.6,82.36
	c-0.19-0.1-0.37-0.19-0.56-0.29c-37.05-19.2-77.31-28.33-97.95,11.72c-2.09,4.06-4.19,7.97-6.29,11.75
	c-0.31,0.58-0.63,1.14-0.96,1.71c-1.73,3.09-3.48,6.09-5.22,8.99c-0.47,0.78-0.93,1.54-1.4,2.3c-1.01,1.66-2.02,3.28-3.03,4.87
	c-0.38,0.6-0.76,1.2-1.14,1.79c-0.57,0.88-1.12,1.73-1.69,2.59c-0.37,0.56-0.73,1.11-1.1,1.66c-0.47,0.7-0.93,1.39-1.4,2.07
	c-0.58,0.87-1.17,1.71-1.74,2.54c-0.36,0.5-0.7,0.99-1.04,1.48c-0.47,0.67-0.93,1.31-1.4,1.96c-1.89,2.62-3.77,5.13-5.66,7.55
	c-0.49,0.62-0.98,1.24-1.47,1.86c-0.49,0.62-0.98,1.22-1.47,1.82c-2.46,3.02-4.91,5.88-7.35,8.58c-0.49,0.52-0.97,1.04-1.44,1.56
	c-0.33,0.37-0.67,0.72-1,1.07c-0.39,0.43-0.8,0.86-1.2,1.27c-0.93,0.98-1.87,1.92-2.79,2.84c-0.47,0.47-0.93,0.92-1.4,1.38
	c-4.23,4.12-8.45,7.8-12.65,11.06c-0.88,0.69-1.76,1.36-2.63,2c-1.02,0.77-2.04,1.5-3.07,2.2c-0.48,0.33-0.96,0.67-1.44,0.99
	c-0.48,0.32-0.96,0.64-1.43,0.96c-0.48,0.31-0.97,0.62-1.44,0.92c-0.46,0.29-0.9,0.58-1.36,0.86c-1.02,0.62-2.04,1.23-3.07,1.81
	c-0.43,0.26-0.88,0.5-1.31,0.73c-0.13,0.08-0.26,0.14-0.39,0.21c-0.34,0.2-0.69,0.39-1.03,0.57c-0.96,0.51-1.9,1-2.86,1.47
	c-0.94,0.47-1.89,0.92-2.83,1.36c-0.48,0.21-0.94,0.42-1.41,0.63c-0.52,0.23-1.04,0.46-1.57,0.68c-1.37,0.57-2.72,1.09-4.07,1.59
	c-0.4-1.34-0.79-2.7-1.19-4.08c-0.36-1.2-0.7-2.42-1.07-3.66c-0.56-1.92-1.12-3.88-1.69-5.87c-0.33-1.16-0.68-2.33-1.01-3.51
	c-0.69-2.4-1.39-4.86-2.1-7.35c-0.58-2-1.16-4.03-1.73-6.09c-0.86-3.03-1.73-6.15-2.63-9.31c-1.88-6.63-3.81-13.56-5.82-20.76
	l0.93-0.23l13.49-3.37l9.98-2.49c3.32-0.83,5.98-3.33,7.01-6.61l24.15-77.34c2.29-7.32-4.31-14.32-11.76-12.49L254.15,65.53
	L285.69,7.9l0.14-0.27H465.4c36.46,0,68.33,19.66,85.58,48.95C555.66,64.53,559.26,73.19,561.6,82.36z"/>
<path class="st3" d="M386.31,489.61c-13.86,25.04-36.7,46.58-67.91,64.05c-8.68,4.86-18.08,9.43-28.19,13.75
	c-0.23,0.1-0.47,0.2-0.71,0.3h-96.28c0.48-0.1,0.96-0.2,1.43-0.3c87.74-18.44,144.02-49.09,167.35-91.26
	c17.61-31.79,17.45-70.13-0.66-120.09c-1.02-2.83-2.1-5.71-3.24-8.62c-0.89-2.28-1.83-4.52-2.82-6.73c-2.94-6.6-6.31-12.93-10.11-19
	c-31.17-49.93-91.04-82.2-178.57-96.2c-6.4-1.03-12.96-1.96-19.66-2.79l1.99-16.09l1.42-11.48c10.41,1.29,20.52,2.82,30.35,4.59
	c42.94,7.76,80.11,20.12,110.8,36.9c44.55,24.35,75.56,58.01,92.23,100.08c0.08,0.19,0.16,0.39,0.23,0.58
	c3.48,8.87,6.48,17.5,8.99,25.89c2.58,8.62,4.66,17,6.2,25.14C406.62,427.27,402.33,460.7,386.31,489.61z"/>
<path class="st5" d="M174.83,210.48c-8.71-1.52-17.54-2.82-26.44-3.92"/>
<path class="st5" d="M120.15,310.39c-2.38-2.33-4.77-4.78-7.19-7.33"/>
<path class="st5" d="M239.51,143.21c0,0,4.86,6.27,13.47,14.61"/>
<radialGradient id="SVGID_00000162352959627888132350000008273983995019956646_" cx="147.7211" cy="189.6175" r="169.6151" fx="163.0379" fy="152.109" gradientTransform="matrix(1 0 0 1.4901 0 -92.9407)" gradientUnits="userSpaceOnUse">
	<stop  offset="0.2235" style="stop-color:#CBCBCA"/>
	<stop  offset="0.8361" style="stop-color:#FFFFFF"/>
</radialGradient>
<path style="fill:url(#SVGID_00000162352959627888132350000008273983995019956646_);" d="M285.83,7.63l-0.14,0.27l-31.54,57.63
	l-58.32,106.58l-15.12,27.63l-5.88,10.75l-8.22,15.02l-38.76,70.83l-7.69,14.06L114,321.64l-24.04,43.93
	c-3.09,5.63-10.17,7.7-15.8,4.6l-58.53-32.23c-5.62-3.09-7.67-10.16-4.58-15.78l66.32-120.47l58.94-107.07L184.05,7.9l0.14-0.27
	H285.83z"/>
<linearGradient id="SVGID_00000002380241018781551070000006524070109308495763_" gradientUnits="userSpaceOnUse" x1="252.9816" y1="193.5117" x2="564.6534" y2="193.5117">
	<stop  offset="6.713014e-07" style="stop-color:#8400C2"/>
	<stop  offset="0.2788" style="stop-color:#8700C2"/>
	<stop  offset="0.4836" style="stop-color:#9001C1"/>
	<stop  offset="0.6648" style="stop-color:#A002C0"/>
	<stop  offset="0.8322" style="stop-color:#B703BE"/>
	<stop  offset="0.9888" style="stop-color:#D405BB"/>
	<stop  offset="1" style="stop-color:#D605BB"/>
</linearGradient>
<path style="fill:url(#SVGID_00000002380241018781551070000006524070109308495763_);" d="M564.65,106.89v133.47
	c-0.26,0.03-0.51,0.08-0.77,0.12c-0.29,0.04-0.59,0.1-0.88,0.16c-4.9,0.88-9.63,2.39-14.1,4.63c-0.22,0.11-0.44,0.22-0.66,0.34
	c-0.77,0.4-1.51,0.81-2.24,1.26c-0.53,0.31-1.07,0.64-1.59,0.99c-0.36,0.22-0.69,0.44-1.03,0.69c-1.71,1.17-3.37,2.47-4.96,3.91
	c-0.24,0.21-0.49,0.44-0.73,0.68c-0.6,0.56-1.2,1.14-1.78,1.74c-0.4,0.41-0.8,0.83-1.18,1.26c-0.33,0.37-0.66,0.73-0.98,1.11
	c-0.19,0.22-0.38,0.44-0.57,0.67c-0.3,0.37-0.61,0.74-0.91,1.13c-0.36,0.46-0.71,0.92-1.07,1.4c-25,33.89-43.89,71.68-86.58,58
	c-3.7-1.19-7.15-2.46-10.37-3.9c-0.87-0.39-1.72-0.79-2.57-1.21c-1.71-0.83-3.36-1.74-4.95-2.72c-0.4-0.23-0.79-0.48-1.17-0.73
	c-0.32-0.2-0.63-0.41-0.94-0.61c-1.14-0.78-2.27-1.59-3.36-2.46c-0.36-0.28-0.7-0.56-1.04-0.84c-0.31-0.26-0.62-0.52-0.93-0.79
	c-0.28-0.23-0.54-0.48-0.81-0.72c-0.23-0.2-0.46-0.4-0.67-0.61c-0.37-0.34-0.73-0.69-1.1-1.04c-0.48-0.47-0.94-0.94-1.4-1.43
	c-0.29-0.3-0.58-0.6-0.87-0.92c-0.38-0.4-0.76-0.82-1.11-1.24c-0.37-0.42-0.73-0.86-1.1-1.3c-0.37-0.44-0.72-0.9-1.09-1.36
	c-0.31-0.39-0.61-0.78-0.91-1.19c-2.38-3.16-4.68-6.72-6.95-10.8c-0.21-0.38-0.42-0.76-0.63-1.14c-0.24-0.43-0.48-0.88-0.71-1.32
	c-0.26-0.48-0.51-0.97-0.77-1.46c-0.38-0.73-0.76-1.48-1.12-2.23c-0.32-0.63-0.63-1.28-0.94-1.93c-0.17-0.36-0.33-0.7-0.5-1.06
	c-0.3-0.61-0.59-1.23-0.87-1.86c-0.26-0.56-0.51-1.11-0.76-1.68c-0.56-1.21-1.1-2.46-1.63-3.73c-0.2-0.44-0.39-0.9-0.58-1.36
	c-0.91-2.16-1.81-4.4-2.72-6.73c-0.17-0.43-0.34-0.88-0.51-1.32c-0.23-0.58-0.46-1.16-0.67-1.74c-0.21-0.54-0.42-1.09-0.63-1.64
	c-0.47-1.24-0.93-2.51-1.4-3.8c-0.36-0.99-0.72-2-1.09-3.03c-1.02-2.84-2.04-5.82-3.09-8.92c-0.19-0.54-0.37-1.09-0.56-1.63
	c-0.97-2.87-1.93-5.85-2.93-8.93c-0.52-1.63-1.06-3.3-1.59-5c-0.59-1.83-1.18-3.71-1.77-5.63c-0.39-1.29-0.79-2.58-1.2-3.89
	c-0.22-0.71-0.44-1.43-0.67-2.17c-0.59-1.93-1.19-3.91-1.79-5.93c-0.34-1.11-0.68-2.23-1.01-3.38c-0.51-1.68-1.01-3.38-1.52-5.1
	l-6.09-2.87c-0.56,0.17-1.1,0.33-1.66,0.49c-0.54,0.16-1.1,0.31-1.64,0.46c-0.69,0.18-1.38,0.36-2.07,0.52
	c-0.52,0.12-1.03,0.24-1.54,0.36c-0.22,0.06-0.44,0.1-0.67,0.14c-1.02,0.22-2.03,0.42-3.04,0.6c-0.69,0.11-1.36,0.22-2.03,0.33
	c-0.47,0.07-0.92,0.13-1.38,0.19c-0.37,0.06-0.73,0.1-1.09,0.14c-0.44,0.06-0.89,0.11-1.32,0.16c-0.63,0.07-1.27,0.13-1.89,0.18
	c-0.62,0.06-1.24,0.1-1.87,0.14c-0.58,0.03-1.14,0.07-1.71,0.09c-0.68,0.03-1.34,0.06-2.01,0.07c-0.61,0.01-1.23,0.02-1.84,0.02
	c-1.09,0-2.18-0.02-3.26-0.06c-1.94-0.08-3.88-0.21-5.79-0.41c-0.42-0.03-0.83-0.08-1.24-0.13c-1.8-0.2-3.58-0.47-5.33-0.77
	c-1.13-0.2-2.26-0.41-3.37-0.64c-1.13-0.24-2.27-0.5-3.39-0.78c-0.52-0.13-1.04-0.27-1.56-0.4c-0.53-0.14-1.07-0.29-1.59-0.43
	c-0.86-0.24-1.71-0.49-2.56-0.74c-0.78-0.24-1.54-0.49-2.3-0.74c-0.22-0.08-0.46-0.16-0.68-0.23c-0.83-0.28-1.64-0.57-2.47-0.87
	c-0.09-0.03-0.18-0.07-0.27-0.1c-0.94-0.34-1.89-0.71-2.82-1.08l-0.01-0.01c-0.93-0.37-1.87-0.76-2.79-1.16
	c-0.92-0.39-1.83-0.8-2.73-1.21c-1.81-0.82-3.6-1.69-5.35-2.6c-0.79-0.4-1.58-0.81-2.36-1.23c-0.47-0.26-0.93-0.51-1.4-0.77
	c-0.92-0.51-1.83-1.03-2.74-1.56l-0.01-0.01c-0.9-0.52-1.8-1.06-2.68-1.6c-4.42-2.7-8.58-5.57-12.43-8.46
	c-0.77-0.58-1.52-1.16-2.27-1.73c-1.12-0.86-2.21-1.73-3.28-2.6c-0.71-0.58-1.4-1.16-2.09-1.72c-1.02-0.86-2.02-1.71-2.99-2.56
	c-0.64-0.57-1.27-1.12-1.89-1.68c-1.86-1.66-3.58-3.28-5.18-4.82l5.13-1.29l16.48-4.11l65.94-16.48l12.56-3.13
	c2.01,7.2,3.94,14.12,5.82,20.76c0.89,3.17,1.77,6.27,2.63,9.31c0.58,2.06,1.16,4.09,1.73,6.09c0.71,2.49,1.41,4.94,2.1,7.35
	c0.33,1.18,0.68,2.36,1.01,3.51c0.57,1.99,1.13,3.94,1.69,5.87c0.37,1.23,0.71,2.46,1.07,3.66l5.26,2.49
	c0.52-0.22,1.04-0.44,1.57-0.68c0.47-0.2,0.94-0.41,1.41-0.63c0.94-0.42,1.89-0.88,2.83-1.36c0.96-0.46,1.9-0.96,2.86-1.47
	c0.34-0.18,0.7-0.37,1.04-0.56c0.13-0.08,0.26-0.14,0.38-0.22c0.44-0.23,0.88-0.48,1.31-0.73c1.02-0.58,2.04-1.19,3.07-1.81
	c0.44-0.28,0.9-0.56,1.36-0.86c0.48-0.3,0.97-0.61,1.44-0.92c0.48-0.31,0.96-0.62,1.43-0.96c0.48-0.31,0.96-0.64,1.44-0.99
	c1.02-0.7,2.04-1.43,3.07-2.2c0.88-0.64,1.76-1.31,2.63-2c4.2-3.26,8.41-6.93,12.65-11.06c0.47-0.46,0.93-0.91,1.4-1.38
	c0.92-0.92,1.86-1.87,2.79-2.84c0.4-0.41,0.81-0.83,1.2-1.27c0.33-0.34,0.67-0.7,1-1.07c0.48-0.51,0.96-1.03,1.44-1.56
	c2.43-2.7,4.89-5.56,7.35-8.58c0.5-0.6,0.99-1.21,1.47-1.82c0.49-0.61,0.98-1.23,1.47-1.86c1.89-2.41,3.77-4.92,5.66-7.55
	c0.47-0.64,0.93-1.29,1.4-1.96c0.34-0.49,0.69-0.98,1.04-1.48c0.58-0.83,1.17-1.68,1.74-2.54c0.47-0.68,0.93-1.37,1.4-2.07
	c0.37-0.54,0.73-1.1,1.1-1.66c0.57-0.86,1.12-1.71,1.69-2.59c0.39-0.59,0.77-1.19,1.14-1.79c1.01-1.59,2.02-3.21,3.03-4.87
	c0.47-0.76,0.93-1.52,1.4-2.3c1.74-2.9,3.49-5.9,5.22-8.99c0.32-0.57,0.64-1.13,0.96-1.71c2.1-3.78,4.2-7.69,6.29-11.75
	c20.64-40.05,60.9-30.93,97.95-11.72c0.19,0.1,0.37,0.19,0.56,0.29c0.97,3.78,1.71,7.63,2.21,11.56
	C564.36,98.16,564.65,102.5,564.65,106.89z"/>
<path class="st5" d="M353.09,132.81c-3.14-11.25-6.47-23.21-10.01-35.94"/>
<path class="st3" d="M408.66,42.77l-24.15,77.34c-1.03,3.28-3.69,5.78-7.01,6.61l-9.98,2.49l-13.49,3.37l-0.93,0.23l-12.56,3.13
	l-65.94,16.48l-16.48,4.11l-5.13,1.29l-10.8,2.7l-46.35,11.58L77.37,201.69l-72.44,18.1l-0.36,0.09v-92.73l0.36-0.09l131.38-32.44
	l117.84-29.09L396.9,30.28C404.34,28.44,410.95,35.44,408.66,42.77z"/>
<circle class="st8" cx="160.83" cy="134.23" r="13.85"/>
<path class="st3" d="M564.65,220.89v28.18c-0.26,0.06-0.51,0.1-0.77,0.16c-8.45,1.78-16.14,6.05-22.03,14.02
	c-3.11,4.23-6.21,8.63-9.21,12.9c-11.16,15.84-21.69,30.8-35.5,41.13c-11.09,8.29-23.17,12.46-36.08,12.46
	c-6.83,0-13.91-1.17-21.19-3.5c-27.74-8.89-42.56-23.41-56.67-55.48c-6.98-15.88-14-36.44-22.45-64.5c-0.9-2.99-1.82-6.07-2.77-9.25
	c0,0,0,0,0-0.01c-1.64-5.58-3.36-11.42-5.12-17.57c-3.78-13.1-7.86-27.54-12.32-43.48c-3.52-12.62-7.3-26.19-11.37-40.79l26.77-7.45
	c4.14,14.9,7.99,28.7,11.58,41.51c4.22,15,8.08,28.63,11.65,40.99c1.72,5.93,3.37,11.57,4.95,16.94c0.01,0,0.01,0.01,0.01,0.01
	c1.03,3.51,2.04,6.9,3.03,10.18c24.33,80.63,34.79,93.98,61.2,102.45c26.26,8.41,39.17-7.8,61.59-39.63
	c3.08-4.38,6.27-8.91,9.58-13.39c10.93-14.84,26.17-23.45,44.37-25.78C564.14,220.96,564.4,220.92,564.65,220.89z"/>
<path class="st3" d="M563.81,93.92c-0.21-0.13-0.43-0.26-0.66-0.38c-22.37-12.46-46.35-21.96-64.02-17.56
	c-9.37,2.33-16.61,8.7-22.17,19.48c-26.6,51.66-56.71,85.76-89.81,101.87c-4.6,2.24-9.27,4.15-13.98,5.68
	c-4.1,1.34-8.23,2.43-12.42,3.24c-3.37,0.66-6.77,1.14-10.19,1.46c-3.13,0.29-6.25,0.42-9.3,0.42c-44.91,0-81.15-29.58-99.08-47.61
	c-7.29-7.33-11.55-12.75-12.13-13.5l10.99-8.51L252,130c0,0,0,0,0.01,0.01c0.29,0.38,8.75,11.01,22.58,22.41
	c17.67,14.56,44.12,30.36,73.55,27.6c1.58-0.14,3.14-0.34,4.71-0.6c4.21-0.67,8.38-1.7,12.52-3.11c4.63-1.58,9.22-3.61,13.78-6.11
	c25.98-14.27,50.47-43.53,73.11-87.47c9.3-18.06,22.8-29.39,40.15-33.72c18.38-4.58,38.49-0.57,58.24,7.42
	c0.1,0.04,0.21,0.08,0.31,0.13c4.69,7.95,8.29,16.61,10.62,25.78C562.56,86.14,563.31,90,563.81,93.92z"/>
<path class="st5" d="M247.7,289.37c-13.67-8.09-41.15-29.86-70.75-45.28"/>
<path class="st5" d="M180,402.09c24.54-3.72,53.07,7.62,73.85,19.61"/>
<path class="st9" d="M467.47,567.41H101.96c-53.59,0-97.03-43.44-97.03-97.03V104.53c0-53.59,43.44-97.03,97.03-97.03h364.07
	c54.39,0,98.48,44.09,98.48,98.48v364.41C564.5,523.97,521.06,567.41,467.47,567.41z"/>
</svg>
