<svg width="256" height="256" viewBox="0 0 256 256" fill="white" xmlns="http://www.w3.org/2000/svg">
<path d="M 101.81818,166.06387 V 89.935871 l 66.90909,38.065459 z M 250.65018,65.982416 C 247.70618,54.895871 239.03127,46.165689 228.01745,43.20278 208.05382,37.818052 128,37.818052 128,37.818052 c 0,0 -80.053819,0 -100.017456,5.384728 C 16.968726,46.165689 8.293817,54.895871 5.349817,65.982416 -1.2e-6,86.075507 -1.2e-6,127.99987 -1.2e-6,127.99987 c 0,0 0,41.92291 5.3498182,62.01746 2.944,11.08654 11.618909,19.81672 22.632727,22.78109 C 47.946181,218.18169 128,218.18169 128,218.18169 c 0,0 80.05382,0 100.01745,-5.38327 11.01382,-2.96437 19.68873,-11.69455 22.63273,-22.78109 C 256,169.92278 256,127.99987 256,127.99987 c 0,0 0,-41.924363 -5.34982,-62.017454" fill="inherit"/>
</svg>